<svg xmlns="http://www.w3.org/2000/svg" xmlns:xlink="http://www.w3.org/1999/xlink" width="318" height="359" viewBox="0 0 318 359"><defs><style>.a,.d,.g{fill:none;}.b{clip-path:url(#a);}.c{fill:#148057;}.d{stroke:#707070;}.e{fill:#fff;font-size:92px;font-family:Montserrat-Bold, Montserrat;font-weight:700;}.f{fill:#c13a3a;}.g{stroke:#fff;stroke-width:9px;}.h{filter:url(#b);}</style><clipPath id="a"><rect class="a" width="37.894" height="28.711"/></clipPath><filter id="b" x="1" y="152" width="211" height="199" filterUnits="userSpaceOnUse"><feOffset dy="3" input="SourceAlpha"/><feGaussianBlur stdDeviation="3" result="c"/><feFlood flood-opacity="0.161"/><feComposite operator="in" in2="c"/><feComposite in="SourceGraphic"/></filter></defs><g transform="translate(-41 -48)"><g class="b" transform="translate(111.606 78.197)"><g transform="translate(-135.606 -202.197)"><path class="c" d="M131.421,88.111s3.677-8.492,5.653-11.066-10.249.437-15.811,11.066S131.421,88.111,131.421,88.111Z" transform="translate(35.212 129.349)"/><path class="c" d="M128.714,80.44c-.126-.23-.633-.159,2.269-3.578,1.548-2.193,2.462-4.342,2.9-4.225.558-.073,2.181,4.977,5.1,7.461,3.766,3.2-5.84,5.969-5.84,5.969s-5.732-4.874-4.958-5.628S128.839,80.67,128.714,80.44Z" transform="translate(25.33 129.564)"/><path class="c" d="M125.94,88.111s-3.677-8.492-5.653-11.066,10.249.437,15.811,11.066S125.94,88.111,125.94,88.111Z" transform="translate(25.817 129.349)"/><path class="d" d="M130.055,87.392" transform="translate(35.397 122.628)"/></g></g><text class="e" transform="translate(41 137)"><tspan x="0" y="0">p</tspan><tspan class="f" y="0">o</tspan><tspan y="0">mo</tspan></text><text class="e" transform="translate(41 193)"><tspan x="0" y="0">doro</tspan></text><text class="e" transform="translate(270 144) rotate(90)"><tspan x="0" y="0">timer</tspan></text><g class="h" transform="matrix(1, 0, 0, 1, 41, 48)"><rect class="f" width="193" height="181" rx="18" transform="translate(10 158)"/></g><line class="g" y1="42.128" transform="translate(149.84 262.372)"/><line class="g" x2="30" y2="13" transform="translate(147.5 300.5)"/></g></svg>