<svg xmlns="http://www.w3.org/2000/svg" xmlns:xlink="http://www.w3.org/1999/xlink" width="37.894" height="28.711" viewBox="0 0 37.894 28.711"><defs><clipPath id="a"><rect width="37.894" height="28.711" fill="none"/></clipPath></defs><g clip-path="url(#a)"><g transform="translate(-135.606 -202.197)"><path d="M131.421,88.111s3.677-8.492,5.653-11.066-10.249.437-15.811,11.066S131.421,88.111,131.421,88.111Z" transform="translate(35.212 129.349)" fill="#148057"/><path d="M128.714,80.44c-.126-.23-.633-.159,2.269-3.578,1.548-2.193,2.462-4.342,2.9-4.225.558-.073,2.181,4.977,5.1,7.461,3.766,3.2-5.84,5.969-5.84,5.969s-5.732-4.874-4.958-5.628S128.839,80.67,128.714,80.44Z" transform="translate(25.33 129.564)" fill="#148057"/><path d="M125.94,88.111s-3.677-8.492-5.653-11.066,10.249.437,15.811,11.066S125.94,88.111,125.94,88.111Z" transform="translate(25.817 129.349)" fill="#148057"/><path d="M130.055,87.392" transform="translate(35.397 122.628)" fill="none" stroke="#707070" stroke-width="1"/></g></g></svg>